# xmcd
#
# Track frame offsets: 
#        150
#        9773
#        28070
#        50185
#        76787
#        99394
#        119172
#        139913
#        163194
#        179837
#        196443
#
# Disc length: 2901 seconds
#
# Revision: 0
# Processed by: cddbd v1.5.2PL0 Copyright (c) Steve Scherf et al.
# Submitted via: ExactAudioCopyFreeDBPlugin 1.0
#
DISCID=9a0b530b
DTITLE=Sophie - New Chapters
DYEAR=2014
DGENRE=Singer/Songwriter
TTITLE0=Dive
TTITLE1=Escape
TTITLE2=Strong For You
TTITLE3=Tell Me
TTITLE4=Thunderstorm
TTITLE5=Changes
TTITLE6=Paralyzed
TTITLE7=Shattered Fairy Tale
TTITLE8=Claret
TTITLE9=Letters
TTITLE10=Can't Please You
EXTD=
EXTT0=
EXTT1=
EXTT2=
EXTT3=
EXTT4=
EXTT5=
EXTT6=
EXTT7=
EXTT8=
EXTT9=
EXTT10=
PLAYORDER=
